<svg xmlns="http://www.w3.org/2000/svg" viewBox="-700 -400 9350 12200" role="img" aria-label="발코니 경계 segment 확장 판정도"><rect x="-700" y="-400" width="9350" height="12200" fill="white"/><g opacity=".25"><polygon points="7950,1785 5300,1785 5300,4820 7950,4820" fill="#e8eff2" fill-opacity=".2" stroke="#96a8b3" stroke-width="10"/><polygon points="5300,1785 2700,1785 2700,5300 5300,5300" fill="#e8eff2" fill-opacity=".2" stroke="#96a8b3" stroke-width="10"/><polygon points="2700,1325 0,1325 0,3630 2700,3630" fill="#e8eff2" fill-opacity=".2" stroke="#96a8b3" stroke-width="10"/><polygon points="2700,3630 0,3630 0,5290 2700,5290" fill="#e8eff2" fill-opacity=".2" stroke="#96a8b3" stroke-width="10"/><polygon points="2700,5290 0,5290 0,6720 2700,6720" fill="#e8eff2" fill-opacity=".2" stroke="#96a8b3" stroke-width="10"/><polygon points="6500,4820 5300,4820 5300,5300 2700,5300 2700,6720 3800,6720 3800,9555 7950,9555 7950,6400 6500,6400" fill="#e8eff2" fill-opacity=".2" stroke="#96a8b3" stroke-width="10"/><polygon points="3800,6720 0,6720 0,9955 3800,9955" fill="#e8eff2" fill-opacity=".2" stroke="#96a8b3" stroke-width="10"/><polygon points="7950,4820 6500,4820 6500,6400 7950,6400" fill="#e8eff2" fill-opacity=".2" stroke="#96a8b3" stroke-width="10"/><polygon points="7950,300 5900,300 5900,1785 7950,1785" fill="#e8eff2" fill-opacity=".2" stroke="#96a8b3" stroke-width="10"/><polygon points="5900,0 700,0 700,275 0,275 0,1325 2700,1325 2700,1785 4550,1785 4550,1250 5900,1250" fill="#e8eff2" fill-opacity=".2" stroke="#96a8b3" stroke-width="10"/><polygon points="7950,9555 3800,9555 3800,9955 0,9955 0,11205 7950,11205" fill="#e8eff2" fill-opacity=".2" stroke="#96a8b3" stroke-width="10"/><g data-id="west"><title>현관측 외벽 / image-estimated</title><line x1="7950" y1="300" x2="7950" y2="11205" stroke="transparent" stroke-width="160" class="hit"/><line x1="7950" y1="300" x2="7950" y2="5250" stroke="#007b83" stroke-width="55" /><line x1="7950" y1="6250" x2="7950" y2="11205" stroke="#007b83" stroke-width="55" /></g><g data-id="entry"><title>entry / 출입 위치·회전호는 원본 식별. 폭/이격거리는 이미지 추정. / ASSUMED: mm 폭·이격거리 미표기, 원본 이미지 기호 기준.</title><line x1="7950" y1="5250" x2="7950" y2="6250" stroke="transparent" stroke-width="200" class="hit"/><line x1="7950" y1="5250" x2="7950" y2="6250" stroke="#d56710" stroke-width="30" stroke-dasharray="65 45"/><line x1="7950" y1="5250" x2="8950" y2="5250" stroke="#d56710" stroke-width="45" /><path d="M 7950 6250 A 1000 1000 0 0 0 8950 5250" fill="none" stroke="#d56710" stroke-width="25"/><circle cx="7950" cy="5250" r="55" fill="#d56710"/></g><g data-id="north-bed3"><title>발코니3 외측 기준 / image-estimated</title><line x1="7950" y1="300" x2="5900" y2="300" stroke="transparent" stroke-width="160" class="hit"/><line x1="7950" y1="300" x2="5900" y2="300" stroke="#007b83" stroke-width="55" stroke-dasharray="110 75"/></g><g data-id="north-step"><title>발코니3/2 단차 / image-estimated</title><line x1="5900" y1="0" x2="5900" y2="1785" stroke="transparent" stroke-width="160" class="hit"/><line x1="5900" y1="0" x2="5900" y2="1785" stroke="#c17c16" stroke-width="55" /></g><g data-id="north"><title>발코니2 외측 기준 / image-estimated</title><line x1="5900" y1="0" x2="700" y2="0" stroke="transparent" stroke-width="160" class="hit"/><line x1="5900" y1="0" x2="4550" y2="0" stroke="#007b83" stroke-width="55" stroke-dasharray="110 75"/><line x1="2800" y1="0" x2="700" y2="0" stroke="#007b83" stroke-width="55" stroke-dasharray="110 75"/></g><g data-id="w-kitchen-out"><title>w-kitchen-out / 유리/창호 기호 위치 추정. 창틀 분할·열림 방식 미확인. / ASSUMED: mm 폭·이격거리 미표기, 원본 이미지 기호 기준.</title><line x1="4550" y1="0" x2="2800" y2="0" stroke="transparent" stroke-width="200" class="hit"/><line x1="4550" y1="0" x2="2800" y2="0" stroke="#1c6feb" stroke-width="60" /></g><g data-id="north-east-step"><title>우측 상단 단차 / image-estimated</title><line x1="700" y1="0" x2="700" y2="275" stroke="transparent" stroke-width="160" class="hit"/><line x1="700" y1="0" x2="700" y2="275" stroke="#007b83" stroke-width="55" /></g><g data-id="north-east"><title>우측 상단 짧은 외벽 / image-estimated</title><line x1="700" y1="275" x2="0" y2="275" stroke="transparent" stroke-width="160" class="hit"/><line x1="700" y1="275" x2="0" y2="275" stroke="#007b83" stroke-width="55" /></g><g data-id="east"><title>반대측 외벽 / dimension-constrained</title><line x1="0" y1="275" x2="0" y2="11205" stroke="transparent" stroke-width="160" class="hit"/><line x1="0" y1="275" x2="0" y2="11205" stroke="#007b83" stroke-width="55" /></g><g data-id="south"><title>발코니1 외측 기준 / image-estimated</title><line x1="7950" y1="11205" x2="0" y2="11205" stroke="transparent" stroke-width="160" class="hit"/><line x1="7950" y1="11205" x2="7650" y2="11205" stroke="#007b83" stroke-width="55" stroke-dasharray="110 75"/><line x1="4150" y1="11205" x2="3650" y2="11205" stroke="#007b83" stroke-width="55" stroke-dasharray="110 75"/><line x1="750" y1="11205" x2="0" y2="11205" stroke="#007b83" stroke-width="55" stroke-dasharray="110 75"/></g><g data-id="w-living-out"><title>w-living-out / 유리/창호 기호 위치 추정. 창틀 분할·열림 방식 미확인. / ASSUMED: mm 폭·이격거리 미표기, 원본 이미지 기호 기준.</title><line x1="7650" y1="11205" x2="4150" y2="11205" stroke="transparent" stroke-width="200" class="hit"/><line x1="7650" y1="11205" x2="4150" y2="11205" stroke="#1c6feb" stroke-width="60" /></g><g data-id="w-bed1-out"><title>w-bed1-out / 유리/창호 기호 위치 추정. 창틀 분할·열림 방식 미확인. / ASSUMED: mm 폭·이격거리 미표기, 원본 이미지 기호 기준.</title><line x1="3650" y1="11205" x2="750" y2="11205" stroke="transparent" stroke-width="200" class="hit"/><line x1="3650" y1="11205" x2="750" y2="11205" stroke="#1c6feb" stroke-width="60" /></g><g data-id="bed3-east"><title>침실3 동측 벽 / image-estimated</title><line x1="5300" y1="1785" x2="5300" y2="5300" stroke="transparent" stroke-width="160" class="hit"/><line x1="5300" y1="1785" x2="5300" y2="5300" stroke="#007b83" stroke-width="55" /></g><g data-id="bed3-south"><title>침실3 거실측 벽 / image-estimated</title><line x1="7950" y1="4820" x2="5300" y2="4820" stroke="transparent" stroke-width="160" class="hit"/><line x1="7950" y1="4820" x2="6350" y2="4820" stroke="#007b83" stroke-width="55" /><line x1="5350" y1="4820" x2="5300" y2="4820" stroke="#007b83" stroke-width="55" /></g><g data-id="door-bed3"><title>door-bed3 / 출입 위치·회전호는 원본 식별. 폭/이격거리는 이미지 추정. / ASSUMED: mm 폭·이격거리 미표기, 원본 이미지 기호 기준.</title><line x1="6350" y1="4820" x2="5350" y2="4820" stroke="transparent" stroke-width="200" class="hit"/><line x1="6350" y1="4820" x2="5350" y2="4820" stroke="#d56710" stroke-width="30" stroke-dasharray="65 45"/><line x1="5350" y1="4820" x2="5350" y2="3820" stroke="#d56710" stroke-width="45" /><path d="M 6350 4820 A 1000 1000 0 0 0 5350 3820" fill="none" stroke="#d56710" stroke-width="25"/><circle cx="5350" cy="4820" r="55" fill="#d56710"/></g><g data-id="spine"><title>침실2·욕실1·욕실2 주방측 벽 / dimension-constrained</title><line x1="2700" y1="1325" x2="2700" y2="6720" stroke="transparent" stroke-width="160" class="hit"/><line x1="2700" y1="1325" x2="2700" y2="2750" stroke="#007b83" stroke-width="55" /><line x1="2700" y1="3600" x2="2700" y2="4620" stroke="#007b83" stroke-width="55" /><line x1="2700" y1="5270" x2="2700" y2="6720" stroke="#007b83" stroke-width="55" /></g><g data-id="door-bed2"><title>door-bed2 / 출입 위치·회전호는 원본 식별. 폭/이격거리는 이미지 추정. / ASSUMED: mm 폭·이격거리 미표기, 원본 이미지 기호 기준.</title><line x1="2700" y1="2750" x2="2700" y2="3600" stroke="transparent" stroke-width="200" class="hit"/><line x1="2700" y1="2750" x2="2700" y2="3600" stroke="#d56710" stroke-width="30" stroke-dasharray="65 45"/><line x1="2700" y1="3600" x2="1850" y2="3600" stroke="#d56710" stroke-width="45" /><path d="M 2700 2750 A 850 850 0 0 0 1850 3600" fill="none" stroke="#d56710" stroke-width="25"/><circle cx="2700" cy="3600" r="55" fill="#d56710"/></g><g data-id="door-bath1"><title>door-bath1 / 출입 위치·회전호는 원본 식별. 폭/이격거리는 이미지 추정. / ASSUMED: mm 폭·이격거리 미표기, 원본 이미지 기호 기준.</title><line x1="2700" y1="4620" x2="2700" y2="5270" stroke="transparent" stroke-width="200" class="hit"/><line x1="2700" y1="4620" x2="2700" y2="5270" stroke="#d56710" stroke-width="30" stroke-dasharray="65 45"/><line x1="2700" y1="5270" x2="2050" y2="5270" stroke="#d56710" stroke-width="45" /><path d="M 2700 4620 A 650 650 0 0 0 2050 5270" fill="none" stroke="#d56710" stroke-width="25"/><circle cx="2700" cy="5270" r="55" fill="#d56710"/></g><g data-id="bed2-south"><title>침실2 / 욕실1 경계 / dimension-constrained</title><line x1="2700" y1="3630" x2="0" y2="3630" stroke="transparent" stroke-width="160" class="hit"/><line x1="2700" y1="3630" x2="0" y2="3630" stroke="#007b83" stroke-width="55" /></g><g data-id="bath-divider"><title>욕실1 / 욕실2 경계 / dimension-constrained</title><line x1="2700" y1="5290" x2="0" y2="5290" stroke="transparent" stroke-width="160" class="hit"/><line x1="2700" y1="5290" x2="0" y2="5290" stroke="#007b83" stroke-width="55" /></g><g data-id="bed1-north"><title>침실1 거실·욕실2측 벽 / dimension-constrained</title><line x1="3800" y1="6720" x2="0" y2="6720" stroke="transparent" stroke-width="160" class="hit"/><line x1="3800" y1="6720" x2="3700" y2="6720" stroke="#007b83" stroke-width="55" /><line x1="2750" y1="6720" x2="980" y2="6720" stroke="#007b83" stroke-width="55" /><line x1="330" y1="6720" x2="0" y2="6720" stroke="#007b83" stroke-width="55" /></g><g data-id="door-bed1"><title>door-bed1 / 출입 위치·회전호는 원본 식별. 폭/이격거리는 이미지 추정. / ASSUMED: mm 폭·이격거리 미표기, 원본 이미지 기호 기준.</title><line x1="3700" y1="6720" x2="2750" y2="6720" stroke="transparent" stroke-width="200" class="hit"/><line x1="3700" y1="6720" x2="2750" y2="6720" stroke="#d56710" stroke-width="30" stroke-dasharray="65 45"/><line x1="3700" y1="6720" x2="3700" y2="7670" stroke="#d56710" stroke-width="45" /><path d="M 2750 6720 A 950 950 0 0 0 3700 7670" fill="none" stroke="#d56710" stroke-width="25"/><circle cx="3700" cy="6720" r="55" fill="#d56710"/></g><g data-id="door-bath2"><title>door-bath2 / 출입 위치·회전호는 원본 식별. 폭/이격거리는 이미지 추정. / ASSUMED: mm 폭·이격거리 미표기, 원본 이미지 기호 기준. 회전호 x338–355px 및 힌지 x338px 재판독.</title><line x1="980" y1="6720" x2="330" y2="6720" stroke="transparent" stroke-width="200" class="hit"/><line x1="980" y1="6720" x2="330" y2="6720" stroke="#d56710" stroke-width="30" stroke-dasharray="65 45"/><line x1="980" y1="6720" x2="980" y2="6070" stroke="#d56710" stroke-width="45" /><path d="M 330 6720 A 650 650 0 0 1 980 6070" fill="none" stroke="#d56710" stroke-width="25"/><circle cx="980" cy="6720" r="55" fill="#d56710"/></g><g data-id="bed1-west"><title>침실1 거실측 벽 / dimension-constrained</title><line x1="3800" y1="6720" x2="3800" y2="9955" stroke="transparent" stroke-width="160" class="hit"/><line x1="3800" y1="6720" x2="3800" y2="9955" stroke="#007b83" stroke-width="55" /></g><g data-id="bal1-divider"><title>발코니1 중간 경계 / image-estimated</title><line x1="3800" y1="9955" x2="3800" y2="11205" stroke="transparent" stroke-width="160" class="hit"/><line x1="3800" y1="9955" x2="3800" y2="11205" stroke="#c17c16" stroke-width="55" stroke-dasharray="110 75"/></g><g data-id="bal3-inner"><title>침실3 / 발코니3 기존 경계 / image-estimated</title><line x1="7950" y1="1785" x2="5900" y2="1785" stroke="transparent" stroke-width="160" class="hit"/><line x1="7950" y1="1785" x2="7850" y2="1785" stroke="#c17c16" stroke-width="55" /><line x1="6000" y1="1785" x2="5900" y2="1785" stroke="#c17c16" stroke-width="55" /></g><g data-id="glaze-bed3"><title>glaze-bed3 / 유리/창호 기호 위치 추정. 창틀 분할·열림 방식 미확인. / ASSUMED: mm 폭·이격거리 미표기, 원본 이미지 기호 기준.</title><line x1="7850" y1="1785" x2="6000" y2="1785" stroke="transparent" stroke-width="200" class="hit"/><line x1="7850" y1="1785" x2="6000" y2="1785" stroke="#00a184" stroke-width="60" stroke-dasharray="65 45"/></g><g data-id="shaft-bottom"><title>상단 박스 하단 / image-estimated</title><line x1="5900" y1="1785" x2="4550" y2="1785" stroke="transparent" stroke-width="160" class="hit"/><line x1="5900" y1="1785" x2="4550" y2="1785" stroke="#c17c16" stroke-width="55" /></g><g data-id="shaft-top"><title>상단 박스 상단 / image-estimated</title><line x1="5900" y1="1250" x2="4550" y2="1250" stroke="transparent" stroke-width="160" class="hit"/><line x1="5900" y1="1250" x2="4550" y2="1250" stroke="#c17c16" stroke-width="55" /></g><g data-id="shaft-right"><title>상단 박스 우측 / image-estimated</title><line x1="4550" y1="1250" x2="4550" y2="1785" stroke="transparent" stroke-width="160" class="hit"/><line x1="4550" y1="1250" x2="4550" y2="1785" stroke="#c17c16" stroke-width="55" /></g><g data-id="bal2-kitchen"><title>주방 / 발코니2 기존 경계 / image-estimated</title><line x1="4550" y1="1785" x2="2700" y2="1785" stroke="transparent" stroke-width="160" class="hit"/><line x1="4550" y1="1785" x2="4500" y2="1785" stroke="#c17c16" stroke-width="55" /><line x1="2750" y1="1785" x2="2700" y2="1785" stroke="#c17c16" stroke-width="55" /></g><g data-id="glaze-kitchen"><title>glaze-kitchen / 유리/창호 기호 위치 추정. 창틀 분할·열림 방식 미확인. / ASSUMED: mm 폭·이격거리 미표기, 원본 이미지 기호 기준.</title><line x1="4500" y1="1785" x2="2750" y2="1785" stroke="transparent" stroke-width="200" class="hit"/><line x1="4500" y1="1785" x2="2750" y2="1785" stroke="#00a184" stroke-width="60" stroke-dasharray="65 45"/></g><g data-id="bal2-bed2"><title>침실2 / 발코니2 기존 경계 / dimension-constrained</title><line x1="2700" y1="1325" x2="0" y2="1325" stroke="transparent" stroke-width="160" class="hit"/><line x1="2700" y1="1325" x2="2550" y2="1325" stroke="#c17c16" stroke-width="55" /><line x1="200" y1="1325" x2="0" y2="1325" stroke="#c17c16" stroke-width="55" /></g><g data-id="glaze-bed2"><title>glaze-bed2 / 유리/창호 기호 위치 추정. 창틀 분할·열림 방식 미확인. / ASSUMED: mm 폭·이격거리 미표기, 원본 이미지 기호 기준.</title><line x1="2550" y1="1325" x2="200" y2="1325" stroke="transparent" stroke-width="200" class="hit"/><line x1="2550" y1="1325" x2="200" y2="1325" stroke="#00a184" stroke-width="60" stroke-dasharray="65 45"/></g><g data-id="bal1-living"><title>거실 / 발코니1 기존 경계 / image-estimated</title><line x1="7950" y1="9555" x2="3800" y2="9555" stroke="transparent" stroke-width="160" class="hit"/><line x1="7950" y1="9555" x2="7850" y2="9555" stroke="#c17c16" stroke-width="55" /><line x1="3900" y1="9555" x2="3800" y2="9555" stroke="#c17c16" stroke-width="55" /></g><g data-id="glaze-living"><title>glaze-living / 유리/창호 기호 위치 추정. 창틀 분할·열림 방식 미확인. / ASSUMED: mm 폭·이격거리 미표기, 원본 이미지 기호 기준.</title><line x1="7850" y1="9555" x2="3900" y2="9555" stroke="transparent" stroke-width="200" class="hit"/><line x1="7850" y1="9555" x2="3900" y2="9555" stroke="#00a184" stroke-width="60" stroke-dasharray="65 45"/></g><g data-id="bal1-bed1"><title>침실1 / 발코니1 기존 경계 / dimension-constrained</title><line x1="3800" y1="9955" x2="0" y2="9955" stroke="transparent" stroke-width="160" class="hit"/><line x1="3800" y1="9955" x2="3300" y2="9955" stroke="#c17c16" stroke-width="55" /><line x1="860" y1="9955" x2="0" y2="9955" stroke="#c17c16" stroke-width="55" /></g><g data-id="glaze-bed1"><title>glaze-bed1 / 유리/창호 기호 위치 추정. 창틀 분할·열림 방식 미확인. / ASSUMED: mm 폭·이격거리 미표기, 원본 이미지 기호 기준.</title><line x1="3300" y1="9955" x2="860" y2="9955" stroke="transparent" stroke-width="200" class="hit"/><line x1="3300" y1="9955" x2="860" y2="9955" stroke="#00a184" stroke-width="60" stroke-dasharray="65 45"/></g></g><line x1="5900" y1="0" x2="5900" y2="1785" stroke="#e78a19" stroke-width="65" ><title>발코니3/2 단차 / 벽체/벽끝 구간 / STRUCTURE_UNCONFIRMED / 원본의 벽체 또는 경계선. 구조재/비구조재 구분과 철거 가능 여부 확인 불가.</title></line><line x1="3800" y1="9955" x2="3800" y2="11205" stroke="#e78a19" stroke-width="65" ><title>발코니1 중간 경계 / 벽체/벽끝 구간 / STRUCTURE_UNCONFIRMED / 원본의 벽체 또는 경계선. 구조재/비구조재 구분과 철거 가능 여부 확인 불가.</title></line><line x1="7950" y1="1785" x2="7850" y2="1785" stroke="#e78a19" stroke-width="65" ><title>침실3 ↔ 발코니3 / 벽체/벽끝 구간 / STRUCTURE_UNCONFIRMED / 원본의 벽체 또는 경계선. 구조재/비구조재 구분과 철거 가능 여부 확인 불가.</title></line><line x1="7850" y1="1875" x2="6000" y2="1875" stroke="#e78a19" stroke-width="28" stroke-dasharray="60 45"><title>침실3 ↔ 발코니3 / 하부벽 가정 / STRUCTURE_UNCONFIRMED / BASE가 공통 windowSill/windowHeight로 자동 생성. 도면에서 실재와 높이 확인 불가.</title></line><line x1="7850" y1="1785" x2="6000" y2="1785" stroke="#d52d32" stroke-width="65" ><title>침실3 ↔ 발코니3 / 창호 / REMOVE_FOR_EXPANSION / 원본의 얇은 평행 창호선. 기존 창호 범위만 모델에서 제외. 철거 승인 판단 아님.</title></line><line x1="7850" y1="1695" x2="6000" y2="1695" stroke="#e78a19" stroke-width="28" stroke-dasharray="60 45"><title>침실3 ↔ 발코니3 / 상부벽 가정 / STRUCTURE_UNCONFIRMED / BASE가 공통 windowSill/windowHeight로 자동 생성. 도면에서 실재와 높이 확인 불가.</title></line><line x1="6000" y1="1785" x2="5900" y2="1785" stroke="#e78a19" stroke-width="65" ><title>침실3 ↔ 발코니3 / 벽체/벽끝 구간 / STRUCTURE_UNCONFIRMED / 원본의 벽체 또는 경계선. 구조재/비구조재 구분과 철거 가능 여부 확인 불가.</title></line><line x1="5900" y1="1785" x2="4550" y2="1785" stroke="#e78a19" stroke-width="65" ><title>상단 박스 하단 / 벽체/벽끝 구간 / STRUCTURE_UNCONFIRMED / 원본의 벽체 또는 경계선. 구조재/비구조재 구분과 철거 가능 여부 확인 불가.</title></line><line x1="5900" y1="1250" x2="4550" y2="1250" stroke="#e78a19" stroke-width="65" ><title>상단 박스 상단 / 벽체/벽끝 구간 / STRUCTURE_UNCONFIRMED / 원본의 벽체 또는 경계선. 구조재/비구조재 구분과 철거 가능 여부 확인 불가.</title></line><line x1="4550" y1="1250" x2="4550" y2="1785" stroke="#e78a19" stroke-width="65" ><title>상단 박스 우측 / 벽체/벽끝 구간 / STRUCTURE_UNCONFIRMED / 원본의 벽체 또는 경계선. 구조재/비구조재 구분과 철거 가능 여부 확인 불가.</title></line><line x1="4550" y1="1785" x2="4500" y2="1785" stroke="#e78a19" stroke-width="65" ><title>주방 ↔ 발코니2 / 벽체/벽끝 구간 / STRUCTURE_UNCONFIRMED / 원본의 벽체 또는 경계선. 구조재/비구조재 구분과 철거 가능 여부 확인 불가.</title></line><line x1="4500" y1="1875" x2="2750" y2="1875" stroke="#e78a19" stroke-width="28" stroke-dasharray="60 45"><title>주방 ↔ 발코니2 / 하부벽 가정 / STRUCTURE_UNCONFIRMED / BASE가 공통 windowSill/windowHeight로 자동 생성. 도면에서 실재와 높이 확인 불가.</title></line><line x1="4500" y1="1785" x2="2750" y2="1785" stroke="#d52d32" stroke-width="65" ><title>주방 ↔ 발코니2 / 창호 / REMOVE_FOR_EXPANSION / 원본의 얇은 평행 창호선. 기존 창호 범위만 모델에서 제외. 철거 승인 판단 아님.</title></line><line x1="4500" y1="1695" x2="2750" y2="1695" stroke="#e78a19" stroke-width="28" stroke-dasharray="60 45"><title>주방 ↔ 발코니2 / 상부벽 가정 / STRUCTURE_UNCONFIRMED / BASE가 공통 windowSill/windowHeight로 자동 생성. 도면에서 실재와 높이 확인 불가.</title></line><line x1="2750" y1="1785" x2="2700" y2="1785" stroke="#e78a19" stroke-width="65" ><title>주방 ↔ 발코니2 / 벽체/벽끝 구간 / STRUCTURE_UNCONFIRMED / 원본의 벽체 또는 경계선. 구조재/비구조재 구분과 철거 가능 여부 확인 불가.</title></line><line x1="2700" y1="1325" x2="2550" y2="1325" stroke="#e78a19" stroke-width="65" ><title>침실2 ↔ 발코니2 / 벽체/벽끝 구간 / STRUCTURE_UNCONFIRMED / 원본의 벽체 또는 경계선. 구조재/비구조재 구분과 철거 가능 여부 확인 불가.</title></line><line x1="2550" y1="1415" x2="200" y2="1415" stroke="#e78a19" stroke-width="28" stroke-dasharray="60 45"><title>침실2 ↔ 발코니2 / 하부벽 가정 / STRUCTURE_UNCONFIRMED / BASE가 공통 windowSill/windowHeight로 자동 생성. 도면에서 실재와 높이 확인 불가.</title></line><line x1="2550" y1="1325" x2="200" y2="1325" stroke="#d52d32" stroke-width="65" ><title>침실2 ↔ 발코니2 / 창호 / REMOVE_FOR_EXPANSION / 원본의 얇은 평행 창호선. 기존 창호 범위만 모델에서 제외. 철거 승인 판단 아님.</title></line><line x1="2550" y1="1235" x2="200" y2="1235" stroke="#e78a19" stroke-width="28" stroke-dasharray="60 45"><title>침실2 ↔ 발코니2 / 상부벽 가정 / STRUCTURE_UNCONFIRMED / BASE가 공통 windowSill/windowHeight로 자동 생성. 도면에서 실재와 높이 확인 불가.</title></line><line x1="200" y1="1325" x2="0" y2="1325" stroke="#e78a19" stroke-width="65" ><title>침실2 ↔ 발코니2 / 벽체/벽끝 구간 / STRUCTURE_UNCONFIRMED / 원본의 벽체 또는 경계선. 구조재/비구조재 구분과 철거 가능 여부 확인 불가.</title></line><line x1="7950" y1="9555" x2="7850" y2="9555" stroke="#e78a19" stroke-width="65" ><title>거실 ↔ 발코니1 / 벽체/벽끝 구간 / STRUCTURE_UNCONFIRMED / 원본의 벽체 또는 경계선. 구조재/비구조재 구분과 철거 가능 여부 확인 불가.</title></line><line x1="7850" y1="9645" x2="3900" y2="9645" stroke="#e78a19" stroke-width="28" stroke-dasharray="60 45"><title>거실 ↔ 발코니1 / 하부벽 가정 / STRUCTURE_UNCONFIRMED / BASE가 공통 windowSill/windowHeight로 자동 생성. 도면에서 실재와 높이 확인 불가.</title></line><line x1="7850" y1="9555" x2="3900" y2="9555" stroke="#d52d32" stroke-width="65" ><title>거실 ↔ 발코니1 / 창호 / REMOVE_FOR_EXPANSION / 원본의 얇은 평행 창호선. 기존 창호 범위만 모델에서 제외. 철거 승인 판단 아님.</title></line><line x1="7850" y1="9465" x2="3900" y2="9465" stroke="#e78a19" stroke-width="28" stroke-dasharray="60 45"><title>거실 ↔ 발코니1 / 상부벽 가정 / STRUCTURE_UNCONFIRMED / BASE가 공통 windowSill/windowHeight로 자동 생성. 도면에서 실재와 높이 확인 불가.</title></line><line x1="3900" y1="9555" x2="3800" y2="9555" stroke="#e78a19" stroke-width="65" ><title>거실 ↔ 발코니1 / 벽체/벽끝 구간 / STRUCTURE_UNCONFIRMED / 원본의 벽체 또는 경계선. 구조재/비구조재 구분과 철거 가능 여부 확인 불가.</title></line><line x1="3800" y1="9955" x2="3300" y2="9955" stroke="#e78a19" stroke-width="65" ><title>안방 ↔ 발코니1 / 벽체/벽끝 구간 / STRUCTURE_UNCONFIRMED / 원본의 벽체 또는 경계선. 구조재/비구조재 구분과 철거 가능 여부 확인 불가.</title></line><line x1="3300" y1="10045" x2="860" y2="10045" stroke="#e78a19" stroke-width="28" stroke-dasharray="60 45"><title>안방 ↔ 발코니1 / 하부벽 가정 / STRUCTURE_UNCONFIRMED / BASE가 공통 windowSill/windowHeight로 자동 생성. 도면에서 실재와 높이 확인 불가.</title></line><line x1="3300" y1="9955" x2="860" y2="9955" stroke="#d52d32" stroke-width="65" ><title>안방 ↔ 발코니1 / 창호 / REMOVE_FOR_EXPANSION / 원본의 얇은 평행 창호선. 기존 창호 범위만 모델에서 제외. 철거 승인 판단 아님.</title></line><line x1="3300" y1="9865" x2="860" y2="9865" stroke="#e78a19" stroke-width="28" stroke-dasharray="60 45"><title>안방 ↔ 발코니1 / 상부벽 가정 / STRUCTURE_UNCONFIRMED / BASE가 공통 windowSill/windowHeight로 자동 생성. 도면에서 실재와 높이 확인 불가.</title></line><line x1="860" y1="9955" x2="0" y2="9955" stroke="#e78a19" stroke-width="65" ><title>안방 ↔ 발코니1 / 벽체/벽끝 구간 / STRUCTURE_UNCONFIRMED / 원본의 벽체 또는 경계선. 구조재/비구조재 구분과 철거 가능 여부 확인 불가.</title></line><text x="6625" y="3292.5" text-anchor="middle" font-family="sans-serif" font-size="220" fill="#243746">침실 3</text><text x="4000" y="3542.5" text-anchor="middle" font-family="sans-serif" font-size="220" fill="#243746">주방 / 식당</text><text x="1350" y="2477.5" text-anchor="middle" font-family="sans-serif" font-size="220" fill="#243746">침실 2</text><text x="1350" y="4460" text-anchor="middle" font-family="sans-serif" font-size="220" fill="#243746">욕실 1</text><text x="1350" y="6005" text-anchor="middle" font-family="sans-serif" font-size="220" fill="#243746">욕실 2</text><text x="5875" y="7775" text-anchor="middle" font-family="sans-serif" font-size="220" fill="#243746">거실</text><text x="1900" y="8337.5" text-anchor="middle" font-family="sans-serif" font-size="220" fill="#243746">침실 1</text><text x="7225" y="5850" text-anchor="middle" font-family="sans-serif" font-size="220" fill="#243746">현관</text><text x="6925" y="1142.5" text-anchor="middle" font-family="sans-serif" font-size="220" fill="#243746">확장 실내 3</text><text x="2275" y="662.5" text-anchor="middle" font-family="sans-serif" font-size="220" fill="#243746">확장 실내 2</text><text x="3975" y="10580" text-anchor="middle" font-family="sans-serif" font-size="220" fill="#243746">확장 실내 1</text></svg>